<svg xmlns="http://www.w3.org/2000/svg" xmlns:xlink="http://www.w3.org/1999/xlink" version="1.1" id="レイヤー_1" x="0px" y="0px" width="160px" height="50px" viewBox="0 0 539.911 109.411" enable-background="new 0 0 539.911 109.411" xml:space="preserve">
<g>
	<g>
		<g>
			<circle fill="#94196B" cx="56.762" cy="56.561" r="52.851"/>
			<linearGradient id="SVGID_1_" gradientUnits="userSpaceOnUse" x1="-150.3413" y1="-121.1255" x2="77.6887" y2="74.5139">
				<stop offset="0" style="stop-color:#191919"/>
				<stop offset="1" style="stop-color:#191919;stop-opacity:0"/>
			</linearGradient>
			<circle fill="url(#SVGID_1_)" cx="56.762" cy="56.561" r="52.851"/>
		</g>
		<g>
			<g>
				<path fill="#FFFFFF" d="M41.076,61.708c-0.138,0-0.274-0.024-0.411-0.052c-7.875-1.589-13.256-6.914-13.256-14.404      c0-13.75,22.282-25.483,44.991-21.692c14.313,2.39,15.721,10.156,14.989,14.159c-1.174,6.421-8.31,10.815-15.437,11.38      c-2.571,0.203-4.98,0.024-7.208,0.194c-14.099,1.08-19.923,4.061-22.404,7.993c-0.289,0.457-0.127,0.683-0.08,0.753      c0.271,0.401,0.218,0.9-0.134,1.257C41.864,61.562,41.476,61.708,41.076,61.708z M31.073,47.252      c0,4.471,2.728,8.026,7.739,10.422c4.589-6.277,11.384-10.049,30.547-10.754c5.035-0.186,11.583-3.095,12.787-8.344      c0.957-4.169-1.508-8.415-10.88-9.94C50.293,25.222,31.073,35.189,31.073,47.252z"/>
			</g>
			<g>
				<path fill="#FFFFFF" d="M73.745,51.639c0.138,0,0.274,0.025,0.411,0.053c7.875,1.588,12.852,6.914,12.852,14.404      c0,13.055-18.866,23.965-43.23,21.691c-11.234-1.048-17.025-5.326-17.645-11.922c-0.762-8.118,7.236-13.799,16.736-13.617      c18.896,0.363,29.003-5.485,29.612-8.188c0.119-0.527,0.127-0.682,0.08-0.752c-0.271-0.402-0.218-0.901,0.134-1.258      C72.957,51.785,73.346,51.639,73.745,51.639z M83.748,66.096c0-4.471-2.728-8.027-7.739-10.423      c-4.59,6.278-12.57,8.577-31.745,8.75c-8.455,0.076-14.273,3.313-13.546,10.753c0.44,4.5,4.679,8.217,14.319,9.117      C61.951,85.866,83.748,77.888,83.748,66.096z"/>
			</g>
			<path fill="#FFFFFF" d="M38.812,57.674c6.901,2.487,18.373,3.586,26.446,1.365l-9.076,3.813l-9.287-0.195     c-4.888-0.313-6.979-1.036-9.545-1.938"/>
			<path fill="#FFFFFF" d="M76.009,55.673c-5.926-2.759-16.226-4.711-26.012-1.754l8.641-3.424l9.287,0.195     c4.888,0.313,6.98,1.036,9.545,1.938"/>
			<path fill="#FFFFFF" d="M65.606,62.337c7.067-2.08,13.596-4.112,15.369,3.192c1.263,5.204-3.14,11.654-11.203,15.079     c0,0,11.444-3.063,12.773-5.176s3.019-10.99,3.019-10.99l-3.502-6.039l-6.341-4.348"/>
			<g>
				<path fill="#FFFFFF" d="M65.258,59.039c9.568-4.021-8.791-8.086-16.779-4.531c-4.311,1.917,2.153-3.439,2.153-3.439      l10.832-0.514l10.246,2.609l4.262,1.063l-4.32,4.759"/>
				<path fill="#FFFFFF" d="M43.455,57.838c-0.495,0.497-0.526,1.054,0.54,1.266c0.877,0.174-2.481,0.124-2.481,0.124"/>
				<path fill="#FFFFFF" d="M38.278,57.41c0.426,0.215,0.542,0.208,1.101-0.484c0.419-0.519,0.22,1.02,0.22,1.02l-1.249,0.196"/>
			</g>
		</g>
	</g>
	<g>
		<path fill="#94196B" d="M29.354,29.354c1.457-1.457,2.358-4.108,2.358-13.498S30.811,3.814,29.354,2.357l0,0h0l0,0l0,0    C27.896,0.9,25.246,0,15.855,0C6.466,0,3.815,0.9,2.358,2.357l0,0l0,0l0,0l0,0C0.901,3.814,0,6.466,0,15.855    s0.901,12.041,2.358,13.498l0,0l0,0l0,0l0,0c1.457,1.457,4.108,2.357,13.498,2.357C25.246,31.711,27.896,30.811,29.354,29.354    L29.354,29.354L29.354,29.354L29.354,29.354L29.354,29.354z"/>
		<linearGradient id="SVGID_2_" gradientUnits="userSpaceOnUse" x1="-192.3755" y1="-158.8374" x2="95.4239" y2="82.6079">
			<stop offset="0" style="stop-color:#FFFFFF"/>
			<stop offset="1" style="stop-color:#FFFFFF;stop-opacity:0"/>
		</linearGradient>
		<path fill="url(#SVGID_2_)" d="M29.354,29.354c1.457-1.457,2.358-4.108,2.358-13.498S30.811,3.814,29.354,2.357l0,0h0l0,0l0,0    C27.896,0.9,25.246,0,15.855,0C6.466,0,3.815,0.9,2.358,2.357l0,0l0,0l0,0l0,0C0.901,3.814,0,6.466,0,15.855    s0.901,12.041,2.358,13.498l0,0l0,0l0,0l0,0c1.457,1.457,4.108,2.357,13.498,2.357C25.246,31.711,27.896,30.811,29.354,29.354    L29.354,29.354L29.354,29.354L29.354,29.354L29.354,29.354z"/>
		<g>
			<path fill="#FFFFFF" d="M26.462,18.042h-7.933c-0.046,0-0.081-0.003-0.106-0.005c0.002-0.005,0.003-0.013,0.003-0.023v-5.229     l0.006-0.289c0.064-1.901,1.038-2.871,2.977-2.96l0.012-0.001c0.145-0.008,0.228-0.012,0.362-0.012h5.451     c0.305,0,0.535-0.23,0.535-0.535V8.557c0-0.315-0.219-0.536-0.535-0.536h-5.523l-0.526,0.017c-2.8,0.071-4.661,1.779-4.741,4.352     c-0.003,0.1-0.007,0.327-0.007,0.428v5.164c0,0.545,0,1.557,1.28,1.557h8.044c0.102,0.001,0.137,0.017,0.103,0.047v2.061     c-0.007,0.031-0.012,0.062-0.013,0.092c-0.055,1.293-0.344,1.555-1.718,1.555l-7.195-0.001c-0.305,0-0.535,0.23-0.535,0.535     v0.433c0,0.307,0.23,0.537,0.535,0.537h0.763c1.11,0,6.651-0.004,6.782-0.009c2.306-0.065,3.279-1.011,3.357-3.268     c0.004-0.111,0.004-0.247,0.004-0.364v-1.55C27.844,19.219,27.844,18.042,26.462,18.042z"/>
			<path fill="#FFFFFF" d="M13.287,8.037h-0.956c-0.311,0-0.536,0.226-0.536,0.537v11.678c0.012,0.933-0.237,1.663-0.738,2.175     c-0.534,0.543-1.364,0.835-2.402,0.842H6.964c-1.718-0.039-2.089-0.36-2.089-1.81L4.874,18.92c0-0.311-0.226-0.537-0.536-0.537     h-0.92c-0.312,0-0.537,0.227-0.537,0.558c0.001,0.004,0.008,0.163,0.008,0.309v0.276c-0.001,0.645-0.004,2.151,0,2.234     c0.085,1.799,0.753,3.004,3.74,3.033c0.074,0.002,2.306,0.002,2.306,0.002c3.152,0,4.888-1.652,4.888-4.653L13.821,8.558     C13.821,8.308,13.537,8.037,13.287,8.037z"/>
		</g>
	</g>
</g>
<g>
	<g>
		<path fill="#94196B" d="M216.399,22.81h-27.592c0,0-1.29,0.044-1.899,0.059c-9.096,0.227-15.151,5.465-15.418,14.034    c-0.011,0.341-0.021,1.125-0.021,1.472v29.052c0,2.848,0.486,3.955,2.96,3.955h36.373c1.371,0.013,1.978,0.547,1.978,1.795v6.731    c0,0.469-0.03,0.007-0.048,0.435c-0.235,5.598-2.063,7.129-7.784,7.129l-33.311-0.004c-0.235,0-0.293,0.133-0.293,0.294v2.783    c0,0.23,0.131,0.294,0.293,0.294l2.732,0.003c0,0,31.307-0.016,31.786-0.029c8.01-0.226,10.227-3.533,10.457-10.145    c0.012-0.382,0.012-0.845,0.012-1.249v-7.399c0-2.848-0.852-3.977-3.327-3.977H177.32c-1.371-0.013-1.977-0.291-1.977-1.726    V39.493c0-0.265,0.013-0.832,0.021-1.093c0.261-7.602,4.433-11.818,12.224-12.185c0.578-0.028,0.892-0.044,1.416-0.044    c2.035,0,27.396,0,27.396,0c0.197,0,0.294-0.107,0.294-0.293v-2.775C216.693,22.855,216.63,22.81,216.399,22.81z"/>
		<path fill="#94196B" d="M242.797,35.03c-0.609-0.015-0.772-0.017-1.695-0.017c-0.922,0-17.957,0.002-17.957,0.002    c-0.203,0-0.293,0.045-0.293,0.273V90.49c0,0.198,0.098,0.293,0.293,0.293h3.293c0.203,0,0.293-0.084,0.293-0.293    c0,0,0-18.594,0-18.76s0.125-0.244,0.241-0.244c0.118,0,4.591,0,4.591,0h23.848c2.474,0,2.949-1.392,2.949-4.24l0.024-16.678    c0,0-0.009-0.835-0.031-1.176C257.813,40.814,251.697,35.252,242.797,35.03z M254.528,66.348c0,1.468-0.633,1.712-2.072,1.712    h-20.892c0,0-4.321,0-4.538,0s-0.294-0.081-0.294-0.281c0-0.199,0-29.049,0-29.159c0-0.117,0.025-0.175,0.187-0.175    c0.162,0,14.365,0,14.365,0s1.302,0.03,1.879,0.058c6.811,0.32,10.997,4.762,11.347,11.136c0.014,0.261,0.021,0.595,0.021,0.86    L254.528,66.348z"/>
		<path fill="#94196B" d="M291.683,71.49h1.779l0.002-0.004h3.391c2.474,0,2.948-1.392,2.948-4.24l0.024-16.678    c0,0-0.009-0.835-0.031-1.176c-0.541-8.578-6.658-14.141-15.558-14.362c-0.609-0.015-0.772-0.017-1.694-0.017    s-17.957,0.002-17.957,0.002c-0.203,0-0.293,0.045-0.293,0.273V90.49c0,0.198,0.099,0.293,0.293,0.293h3.293    c0.204,0,0.294-0.084,0.294-0.293c0,0,0-18.594,0-18.76s0.124-0.244,0.241-0.244c0.117,0,4.59,0,4.59,0h7.069l-0.004,0.004h1.975    c7.12,0.396,15.001,5.863,14.478,19.057c0,0.162,0.131,0.294,0.293,0.294h3.293c0.162,0,0.294-0.132,0.294-0.294    C300.383,80.401,297.173,74.15,291.683,71.49z M268.468,68.06c-0.216,0-0.294-0.081-0.294-0.281c0-0.199,0-29.049,0-29.159    c0-0.117,0.024-0.175,0.187-0.175c0.162,0,14.365,0,14.365,0s1.301,0.03,1.879,0.058c6.812,0.32,10.996,4.762,11.347,11.136    c0.015,0.261,0.021,0.595,0.021,0.86l-0.003,15.85c0,1.468-0.633,1.712-2.072,1.712h-20.893    C273.005,68.06,268.685,68.06,268.468,68.06z"/>
		<path fill="#94196B" d="M422.082,49.86c0-10.686-7.32-14.867-17.244-14.867h-12.896c-5.639,0-6.33,2.177-6.33,4.938    c0,1.462,0,5.474,0,15.106l-0.007,0.002v5.818c0,0.469-0.016,1.989-0.034,2.417c-0.166,3.948-1.879,4.771-6.085,4.771    l-3.502-0.002c-4.826-14.062-11.338-33.031-11.414-33.217c-0.119-0.292-0.313-0.485-0.623-0.485c-0.31,0-6.031,0-6.295,0    c-0.359,0-0.504,0.229-0.615,0.493c-0.087,0.21-15.486,40.939-19.897,52.609c-6.188,0-21.472,0-23.837,0    c-3.045,0-3.612-1.693-3.612-5.635V71.398h27.762c0.183,0,0.294-0.132,0.294-0.295v-2.765c0-0.161-0.132-0.292-0.294-0.292H309.69    V38.362h28.798c0.165,0,0.293-0.131,0.293-0.294v-2.775c0-0.161-0.131-0.293-0.293-0.293h-32.384    c-0.163,0-0.294,0.132-0.294,0.293v49.891c0,4.301,2.719,5.642,5.223,5.642c2.354,0,17.924,0,25.096,0c0,0,0.011,0.01,0.02,0.01    h3.816c0.162,0,0.345-0.133,0.408-0.295c0,0,19.463-52.628,19.518-52.744c0.055-0.115,0.091-0.173,0.248-0.173    c0.159,0,1.068,0,1.161,0c0.092,0,0.278,0.316,0.235,0.204c-0.08-0.198,5.641,16.796,10.195,30.217l-6.563-0.001    c-0.01,0-0.016,0.003-0.023,0.004c-6.289,0-12.701,0-13.354,0c-0.403,0-0.477,0.164-0.477,0.42c0,0.524,0,2.02,0,2.566    c0,0.322,0.145,0.413,0.477,0.413c0.965,0,14.102-0.002,21.094-0.004c1.688,4.966,3.104,9.104,3.823,11.154    c0.692,2.021,1.127,3.241,1.127,3.241c1.677,4.979,4.661,4.99,8.297,4.99c3.252,0,9.197,0.006,9.197,0.006l0.002-0.005    c0.458,0.001,0.913,0.001,1.355,0.001l-0.003,0.011c0,0,1.277-0.003,2.984-0.008c0.608,0.001,0.989,0.001,0.989,0.001    l-0.002-0.004c3.266-0.008,7.402-0.019,7.689-0.019c9.979,0,13.289-5.024,13.654-13.983c0.041-0.99,0.083-1.843,0.083-3.219    v-6.337l-0.003,0.001C422.08,61.314,422.082,49.86,422.082,49.86z M418.237,75.061c0,0.47-0.059,1.791-0.076,2.219    c-0.274,6.543-2.778,10.191-11.024,10.191l-7.921-0.003l-0.014-0.032c-1.053,0-0.739,0-2.473,0c-0.511,0-1.19,0-2.147,0    c-1.841,0-4.445,0-7.225,0c-3.669,0-5.037-0.865-6.18-4.257c-0.063-0.186-0.138-0.399-0.211-0.612    c-0.433-1.26-1.919-5.592-3.833-11.172c1.909-0.004,3.399-0.008,3.561-0.008c6.499,0,8.585-2.438,8.785-8.218    c0.013-0.382,0.055-1.86,0.055-2.265v-2.172h0.016c0-12.236,0-16.292,0-17.395c0-1.439,0.789-2.976,4.251-2.976h10.892    c8.867,0,13.549,4.623,13.549,12.337v17.729l-0.004,0.001V75.061z"/>
	</g>
	<path fill="#94196B" d="M488.185,23.053c0-0.141-0.097-0.235-0.29-0.235h-3.351c-0.203,0-0.288,0.083-0.288,0.293v52.163   c0.1,8.193-5.092,12.149-12.611,12.194c-0.709,0.005-1.272,0.009-1.272,0.009c-0.338,0-0.118,0.002-1.234,0   c-1.286-0.002-12.034,0.023-13.39-0.008c-6.528-0.15-8.883-1.711-8.883-7.937l-0.001-5.212v-2.496c0-0.217-0.102-0.293-0.293-0.293   h-3.141c-0.249,0-0.35,0.083-0.35,0.326c0,0.552,0,8.229,0,9.261c0,5.227,1.616,9.618,11.553,9.718   c0.259,0.003,0.58,0.004,0.937,0.004l-0.001,0.001l17.063-0.001c9.374,0,15.555-4.457,15.555-14.73v-52.86l-0.002,0.006   C488.185,23.125,488.185,23.053,488.185,23.053z"/>
	<g>
		<path fill="#94196B" d="M510.806,26.215c0.577-0.027,0.892-0.043,1.416-0.043c2.034,0,27.395,0,27.395,0    c0.197,0,0.294-0.107,0.294-0.293v-2.775c0-0.248-0.063-0.294-0.294-0.294h-27.592c0,0-1.289,0.044-1.898,0.06    c-9.097,0.226-15.151,5.464-15.419,14.033c-0.011,0.341-0.021,1.125-0.021,1.473v29.051c0,2.848,0.485,3.955,2.96,3.955h36.372    c1.371,0.013,1.978,0.547,1.978,1.795v6.731c0,0.47-0.029,0.007-0.048,0.435c-0.235,5.598-2.063,7.129-7.784,7.129l-33.311-0.004    c-0.235,0-0.294,0.133-0.294,0.294v2.783c0,0.23,0.132,0.294,0.294,0.294l2.732,0.003c0,0,31.307-0.016,31.786-0.029    c8.01-0.226,10.228-3.533,10.456-10.145c0.013-0.382,0.013-0.845,0.013-1.249v-7.399c0-2.848-0.853-3.977-3.327-3.977h-35.977    c-1.37-0.013-1.978-0.291-1.978-1.726V39.493c0-0.265,0.013-0.832,0.021-1.093C498.843,30.799,503.015,26.582,510.806,26.215z"/>
	</g>
</g>
<g>
</g>
<g>
</g>
<g>
</g>
<g>
</g>
<g>
</g>
<g>
</g>
</svg>